<svg xmlns="http://www.w3.org/2000/svg" viewBox="0 0 128 128" role="img" aria-labelledby="title">
  <title id="title">Galewela Pradeshiya Sabha logo</title>
  <defs>
    <linearGradient id="sky" x1="24" x2="104" y1="8" y2="120" gradientUnits="userSpaceOnUse">
      <stop offset="0" stop-color="#65a7ff"/>
      <stop offset=".55" stop-color="#1769e0"/>
      <stop offset="1" stop-color="#092b63"/>
    </linearGradient>
    <linearGradient id="leaf" x1="33" x2="95" y1="44" y2="102" gradientUnits="userSpaceOnUse">
      <stop offset="0" stop-color="#9ee493"/>
      <stop offset="1" stop-color="#18a66f"/>
    </linearGradient>
  </defs>
  <rect width="128" height="128" rx="30" fill="url(#sky)"/>
  <path d="M22 86c20-31 56-44 84-30-18 4-29 16-37 31-13-8-29-8-47-1Z" fill="url(#leaf)"/>
  <path d="M25 96c22-16 47-17 78-4" fill="none" stroke="#fff" stroke-width="8" stroke-linecap="round" opacity=".9"/>
  <path d="M64 23c11 11 15 22 13 34-9-6-18-6-27 0-1-12 3-23 14-34Z" fill="#ffd166"/>
  <circle cx="64" cy="71" r="8" fill="#fff"/>
  <path d="M39 106h50" stroke="#fff" stroke-width="7" stroke-linecap="round" opacity=".92"/>
</svg>
